<?xml version="1.0" encoding="UTF-8"?><svg id="Layer_1" xmlns="http://www.w3.org/2000/svg" xmlns:xlink="http://www.w3.org/1999/xlink" viewBox="0 0 1022 460"><defs><style>.cls-1,.cls-2,.cls-3{opacity:.1;}.cls-1,.cls-4,.cls-5,.cls-6,.cls-7,.cls-8,.cls-9,.cls-10,.cls-11,.cls-12,.cls-13,.cls-14,.cls-3{stroke:#000;stroke-miterlimit:10;stroke-width:4px;}.cls-1,.cls-14{fill:none;}.cls-4{fill:url(#linear-gradient-2);}.cls-5{fill:url(#linear-gradient-4);}.cls-6{fill:url(#linear-gradient-5);}.cls-7{fill:url(#linear-gradient-6);}.cls-8{fill:url(#linear-gradient-7);}.cls-9{fill:url(#linear-gradient-9);}.cls-10{fill:url(#linear-gradient-8);}.cls-11{fill:url(#linear-gradient-3);}.cls-12{fill:url(#linear-gradient-10);}.cls-13{fill:url(#linear-gradient);}.cls-3{fill:#fff;}</style><linearGradient id="linear-gradient" x1="347" y1="39.68" x2="572" y2="39.68" gradientUnits="userSpaceOnUse"><stop offset="0" stop-color="#281102"/><stop offset="1" stop-color="#793101"/></linearGradient><linearGradient id="linear-gradient-2" x1="312" y1="69.05" x2="630" y2="69.05" gradientUnits="userSpaceOnUse"><stop offset="0" stop-color="#793101"/><stop offset="1" stop-color="#cb5204"/></linearGradient><linearGradient id="linear-gradient-3" x1="373" y1="376.58" x2="735" y2="376.58" gradientUnits="userSpaceOnUse"><stop offset="0" stop-color="#281102"/><stop offset="1" stop-color="#793101"/></linearGradient><linearGradient id="linear-gradient-4" x1="298" y1="99.03" x2="666" y2="99.03" gradientUnits="userSpaceOnUse"><stop offset="0" stop-color="#cb5204"/><stop offset="1" stop-color="#ff791f"/></linearGradient><linearGradient id="linear-gradient-5" x1="289" y1="140.5" x2="701" y2="140.5" gradientUnits="userSpaceOnUse"><stop offset="0" stop-color="#ff791f"/><stop offset="1" stop-color="#ffa972"/></linearGradient><linearGradient id="linear-gradient-6" x1="288.87" y1="183.5" x2="727" y2="183.5" gradientUnits="userSpaceOnUse"><stop offset="0" stop-color="#ffa970"/><stop offset="1" stop-color="#fedac0"/></linearGradient><linearGradient id="linear-gradient-7" x1="102.14" y1="221.27" x2="940.85" y2="221.27" gradientUnits="userSpaceOnUse"><stop offset="0" stop-color="#fedac0"/><stop offset="1" stop-color="#281102"/></linearGradient><linearGradient id="linear-gradient-8" x1="293" y1="230.62" x2="741.76" y2="230.62" gradientUnits="userSpaceOnUse"><stop offset="0" stop-color="#ffa972"/><stop offset="1" stop-color="#ff7922"/></linearGradient><linearGradient id="linear-gradient-9" x1="2.38" y1="225.91" x2="1019.76" y2="225.91" gradientUnits="userSpaceOnUse"><stop offset="0" stop-color="#ffa972"/><stop offset="1" stop-color="#793101"/></linearGradient><linearGradient id="linear-gradient-10" x1="345.44" y1="334.04" x2="742.53" y2="334.04" gradientUnits="userSpaceOnUse"><stop offset="0" stop-color="#793101"/><stop offset="1" stop-color="#cb5204"/></linearGradient></defs><ellipse class="cls-1" cx="516.77" cy="214.96" rx="311.17" ry="63.22" transform="translate(-38.91 148.02) rotate(-15.72)"/><g class="cls-2"><path class="cls-14" d="m938.58,100.32c-27.23-40.9-211.5-32.21-442.29,33.6-230.8,65.81-406.97,157.47-393.49,204.72,13.47,47.26,211.5,32.21,442.29-33.6,230.8-65.81,419.92-165.05,393.49-204.72Z"/><ellipse class="cls-14" cx="511.07" cy="223.42" rx="529.74" ry="111.15" transform="translate(-42.44 154.56) rotate(-16.52)"/></g><path class="cls-1" d="m744.32,236.33c0,.12,0,.25-.01.37"/><path class="cls-3" d="m742.54,261.12s0,.06-.01.09c-7.42,58.55-37.39,114.01-88,152.2-95.81,72.31-230.86,56.53-309.09-33.5-.08-.07-.14-.15-.19-.22"/><path class="cls-3" d="m741.8,198.11c0-.09-.03-.18-.04-.27-2.8-18.45-7.88-36.72-15.29-54.35-4.41-10.49-9.65-20.76-15.72-30.71-3.05-5-6.31-9.92-9.78-14.75-1.05-1.45-2.11-2.89-3.19-4.32-1.39-1.84-2.79-3.65-4.23-5.43-5.89-7.35-12.15-14.26-18.73-20.7-79.54-77.88-205.55-88.46-296.34-19.94-44.88,33.87-73.53,81.32-84.62,132.46h0c-1.8,8.31-3.14,16.7-4,25.15-.97,9.43-1.36,18.93-1.16,28.44.62,28.63,6.59,57.35,18.13,84.56"/><path class="cls-13" d="m347,77s144-15,225-67c0,0-125-41-225,67Z"/><path class="cls-4" d="m312,128s193,7,318-94c0,0-29-18-58-24,0,0-64,45-225,67,0,0-15,13-35,51Z"/><path class="cls-11" d="m654.53,413.41c61.87-40.81,80.47-117.41,80.47-117.41,0,0-105,119-362,110,0,0,126,110,281.53,7.41Z"/><path class="cls-1" d="m743,261s-160,73-398,119"/><path class="cls-5" d="m630,34s-103,93-318,94c0,0-10,20-14,36,0,0,230,6,368-104,0,0-17-16-36-26Z"/><path class="cls-6" d="m666,60s16,13,35,38c0,0-116,108-412,123,0,0,1-33,9-57,0,0,232,7,368-104Z"/><path class="cls-7" d="m701,98s15,19,26,45c0,0-124,121-434,126,0,0-5-21-4-48,0,0,264-7,412-123Z"/><path class="cls-8" d="m710.75,112.78s-7.75-13.78-17.2-24.5c0,0,213.45-35.28,245.03,12.04,0,0,56.42,64.68-393.49,204.72,0,0-403.08,112.95-442.29,33.6,0,0-21.79-46.64,187.07-133.39,0,0-.86,13.75-1.16,28.44,0,0-76.24,37.81-71.47,65.56,0,0,15.57,56.39,316.67-23.43,0,0,296.1-87.82,282.41-145.15,0,0-10.31-27.67-105.56-17.89Z"/><path class="cls-10" d="m727,143s12,26,14.76,54.84c0,0-214.76,106.16-434.93,120.41,0,0-11.83-24.25-13.83-49.25,0,0,274,5,434-126Z"/><path class="cls-9" d="m693.55,88.28s-9.55-11.28-18.73-20.7c0,0,316.18-66.58,344.12,5.2,0,0,42.06,98.22-476.26,257.2,0,0-514.68,151.01-539.48,44.08,0,0-31.2-84.07,290.66-193.96,0,0-2.86,12.89-3.86,24.89,0,0-197,80-187.21,133.64,0,0,19.21,77.36,442.29-33.6,0,0,426.92-136.05,393.49-204.72,0,0-18.58-44.32-245.03-12.04Z"/><path class="cls-12" d="m735,296s5.06-9.58,7.53-34.79c0,0-189.53,71.79-397.09,118.7,0,0,14.56,19.09,27.56,26.09,0,0,225,18,362-110Z"/></svg>