<?xml version="1.0" encoding="UTF-8"?><svg xmlns="http://www.w3.org/2000/svg" xmlns:xlink="http://www.w3.org/1999/xlink" viewBox="0 0 4035 3030"><defs><style>.cls-1{fill:url(#linear-gradient);}.cls-2{opacity:.07;}.cls-3{fill:#f28e1e;}.cls-4{fill:#f6ab3b;}.cls-5,.cls-6{fill:#fff;}.cls-7{fill:#ffebd7;}.cls-8{fill:#a25652;}.cls-9{fill:#637b1e;}.cls-6{stroke-width:10px;}.cls-6,.cls-10{stroke:#000;stroke-miterlimit:10;}.cls-11{fill:#ffe2c7;opacity:.2;}.cls-12{fill:url(#linear-gradient-2);}.cls-10{fill:none;}.cls-13{opacity:.17;}</style><linearGradient id="linear-gradient" x1="10527.91" y1="-593.15" x2="10527.91" y2="-346.35" gradientTransform="translate(14139.97 -3891.3) rotate(153.28) scale(1.13 -1.05)" gradientUnits="userSpaceOnUse"><stop offset="0" stop-color="#f6ab3b"/><stop offset="1" stop-color="#f28e1e"/></linearGradient><linearGradient id="linear-gradient-2" x1="4460.31" y1="2564.71" x2="4460.31" y2="2811.52" gradientTransform="translate(-160.07 -3708.43) rotate(25.76) scale(1.13 1.05)" xlink:href="#linear-gradient"/></defs><g id="game_over"><rect class="cls-8" x="1.01" y="1.68" width="4033" height="3026"/><rect class="cls-5" x="247.01" y="179.68" width="3559" height="2673"/><polygon class="cls-5" points="240.43 166.61 252.43 1329.61 125.43 1329.61 125.43 1692.61 244.43 1691.61 239.43 2847.61 3822.43 2853.61 3809.43 1691.61 3923.43 1691.61 3921.43 1322.61 3805.43 1321.61 3826.43 162.61 240.43 166.61"/><path class="cls-9" d="m279.43,2742.61v74h67s-16-49-67-74Z"/><path class="cls-9" d="m290.43,2289.61l-3,412s80.58,30.07,100.58,115.07l1611.42-3.07,2-946s-580.42-348.93-1-727V210.61s-1598-9-1598-9c0,0,3.58,96.07-115,137l3,376,594-1-2,486s349.58,262.07,1,621l-5,470-588-1Z"/><polygon class="cls-9" points="293.43 760.61 293.43 1156.61 497.43 1157.61 497.43 1874.61 292.43 1876.61 291.43 2239.61 828.43 2237.61 830.43 760.61 293.43 760.61"/><polygon class="cls-9" points="305.43 1211.61 440.43 1211.61 441.43 1815.61 298.43 1815.61 305.43 1211.61"/><polygon class="cls-9" points="170.43 1378.61 170.43 1638.61 251.43 1639.61 252.43 1377.61 170.43 1378.61"/><polygon class="cls-9" points="3751.43 1208.61 3753.43 1808.61 3640.43 1807.61 3640.43 1209.61 3751.43 1208.61"/><polygon class="cls-9" points="3874.43 1366.61 3876.43 1647.61 3807.43 1648.61 3805.43 1365.61 3874.43 1366.61"/><polygon class="cls-9" points="3763.43 761.61 3765.43 1158.61 3588.43 1159.61 3588.43 1857.61 3771.43 1855.61 3773.43 2247.61 3234.01 2237.68 3231.43 763.61 3763.43 761.61"/><path class="cls-9" d="m3772.43,335.61l-5,378-587,4-1,486s-300.42,265.07,2,608l2,470,592,9,3,406s-100.42,36.07-112.42,117.07h-1609l3-945s605-366-3.58-726.07l1-936,1604-1s-1.42,87.07,111,130Z"/><path class="cls-9" d="m3773.43,205.61l-67-1s-1.42,57.07,66,86l1-85Z"/><path class="cls-9" d="m279.43,200.61l2,89s68.58-27.93,66-89h-68Z"/><path class="cls-9" d="m3777.43,2742.61v75l-65-1s16-51,65-74Z"/><path class="cls-9" d="m880.43,1243.61v520s270-228,0-520Z"/><path class="cls-9" d="m2010.43,1804.61l3-259c-53-45-5-82-5-82l-1-272s-448.42,302.07,3,613Z"/><path class="cls-9" d="m3180.43,1246.61l1,519s-213.42-254.93-1-519Z"/><circle class="cls-5" cx="3393.93" cy="1508.11" r="18.5"/><circle class="cls-5" cx="660.93" cy="1507.11" r="18.5"/><path class="cls-9" d="m2046.01,1812.68l2.42-267.07s52.58-40.93,0-86l1.58-267.93s473,289-4,621Z"/></g><g id="tekst"><g><path class="cls-13" d="m3109.64,982.08l2.39,4.13c.75,1.29,2.49,1.72,3.97.98l197.14-99.24c1.48-.74,2.17-2.4,1.58-3.77l-1.89-4.38c-.64-1.48-2.51-2.04-4.1-1.24l-197.63,99.49c-1.59.8-2.25,2.64-1.44,4.03Z"/><path class="cls-13" d="m3118.48,985.68l132.42,228.63h0c.78,1.34,2.6,1.79,4.16,1.01l157.71-79.39c1.91-.96,2.82-3.1,2.06-4.85h0s-104.51-241.92-104.51-241.92"/><polygon class="cls-1" points="3117.59 975.37 3254.1 1212.23 3411.18 1133.16 3411.11 1133 3322.51 929.05 3304.08 886.63 3302.01 882.53 3117.59 975.37"/><ellipse class="cls-4" cx="3296.49" cy="976.81" rx="14.31" ry="13.27" transform="translate(-87.17 1586.57) rotate(-26.72)"/><ellipse class="cls-7" cx="3292.39" cy="829.61" rx="9.54" ry="8.84" transform="translate(-21.42 1569.01) rotate(-26.72)"/><ellipse class="cls-7" cx="3258.99" cy="817.44" rx="14.31" ry="13.27" transform="translate(-19.52 1552.69) rotate(-26.72)"/><ellipse class="cls-4" cx="3351.42" cy="1069.37" rx="24.81" ry="23" transform="translate(-122.93 1621.16) rotate(-26.72)"/><path class="cls-4" d="m3222.67,1157.14h0s5.02,8.71,5.02,8.71h0c5.69,5.35,14.75,6.7,22.63,2.73,9.88-4.98,14.16-16.44,9.55-25.6-4.61-9.16-16.37-12.56-26.25-7.58-8.53,4.3-12.88,13.43-10.95,21.73Z"/><ellipse class="cls-4" cx="3246.92" cy="1095.64" rx="4.77" ry="4.42" transform="translate(-145.9 1576.97) rotate(-26.72)"/><ellipse class="cls-4" cx="3325.92" cy="1106.57" rx="8.59" ry="7.96" transform="translate(-142.38 1613.66) rotate(-26.72)"/><ellipse class="cls-4" cx="3241.58" cy="1049.51" rx="24.33" ry="22.55" transform="translate(-125.73 1569.65) rotate(-26.72)"/><path class="cls-7" d="m3099.76,959.99l1.75,3.48c1.94,3.85,4.94,6.84,8.53,8.82,5.28,2.92,11.84,3.68,18.15,1.83,1.46-.42,2.9-.99,4.31-1.7l158.89-79.99c1.35-.68,2.61-1.46,3.77-2.33,5.35-3.98,8.71-9.78,9.51-15.85.53-4.05-.08-8.23-2.01-12.06l-1.75-3.48c-5.45-10.82-19.33-14.83-31-8.95l-158.89,79.99c-11.67,5.88-16.72,19.41-11.27,30.23Z"/><ellipse class="cls-7" cx="3240.25" cy="875.88" rx="36.98" ry="34.28" transform="translate(-47.8 1550.51) rotate(-26.72)"/><ellipse class="cls-7" cx="3191.39" cy="883.26" rx="45.71" ry="42.37" transform="translate(-56.33 1529.33) rotate(-26.72)"/><ellipse class="cls-7" cx="3154.57" cy="912.14" rx="42.18" ry="39.1" transform="translate(-73.26 1515.85) rotate(-26.72)"/><ellipse class="cls-3" cx="3305.19" cy="1031.44" rx="6.68" ry="6.19" transform="translate(-110.81 1596.32) rotate(-26.72)"/><ellipse class="cls-3" cx="3215.87" cy="999.17" rx="5.15" ry="4.78" transform="translate(-105.84 1552.71) rotate(-26.72)"/><ellipse class="cls-3" cx="3205.5" cy="1059.81" rx="5.25" ry="4.86" transform="translate(-134.21 1554.52) rotate(-26.72)"/><ellipse class="cls-3" cx="3245.67" cy="1003.18" rx="2.86" ry="2.65" transform="translate(-104.46 1566.54) rotate(-26.72)"/><ellipse class="cls-3" cx="3297.62" cy="1046.54" rx="2.29" ry="2.12" transform="translate(-118.41 1594.53) rotate(-26.72)"/><path class="cls-2" d="m3175.1,946.61l122.65,243.65-43.3,21.8,1.65-.92-.04-.07-15.93-27.18h-.02s-.05-.08-.09-.12h.03s-23.81-40.62-23.81-40.62h0s-4.49-7.67-4.49-7.67h0s-71.18-121.41-71.18-121.41l-19.71-33.63-2.62-5.21,56.86-28.63Z"/><rect class="cls-11" x="3301.64" y="886.84" width="47.71" height="273.13" transform="translate(6756.02 442.21) rotate(153.28)"/><polygon class="cls-7" points="3117.17 974.98 3121.34 982.82 3130.94 1000.86 3139.81 1017.52 3141.2 1019.93 3323.67 928.07 3305.28 885.63 3303.93 882.53 3303.31 881.28 3117.17 974.98"/><rect class="cls-7" x="3154.08" y="953.6" width="36.64" height="94.11" rx="11.52" ry="11.52" transform="translate(6455.95 467.99) rotate(153.28)"/></g><g><path class="cls-6" d="m143.43,919.87c18.73-117.33,97.19-142.07,134.16-147.53,13.07-1.89,26.24.18,38.08,6.08,17.43,8.71,43.58,26.16,62.44,58.41,13.39,22.89,3.36,52.19-21.62,61.78-17.99,6.9-38.58,1.31-50.37-13.83-5.76-7.39-12.5-11.75-17.31-14.13-4.03-2-8.51-2.71-12.95-2.07-12.59,1.82-39.19,10.3-45.19,49.95-4.77,31.63,3.64,57.68,11.11,73.36,6.45,13.56,23.39,19.2,36.6,11.81.13-.07.27-.15.41-.23,18.92-10.86,56.85-36.97,74.8-24.59.84.58,1.69,1.16,2.53,1.75,23.47,16.16,30.78,47.24,16.25,71.33-44.81,74.26-124.72,56.08-124.64,56.02-.05.21-129.16-32.73-104.29-188.11Z"/><path class="cls-6" d="m374.35,1073.65c28.17-75.71,56-151.51,83.49-227.38,10.63-28.71,38.39-46.3,67.19-42.65,28.58,3.63,50.98,27.27,54.35,57.47,8.58,77.33,17.5,154.67,26.77,232,3.56,29.5-18.71,55.81-47.73,56.11-26.54.28-47.74-15.65-48.03-42.86,0-.09,0-.17-.01-.26-.25-5.23-4.34-9.55-9.69-10.22-12.37-1.55-24.73-3.13-37.09-4.72-5.75-.74-11.08,2.96-12.2,8.48-.12.58-.23,1.16-.35,1.73-7.66,24.3-34.51,36.13-56.8,24.99-19.01-9.5-27.6-32.39-19.89-52.69Zm112.29-53.77c4.77.61,9.54,1.22,14.32,1.82,5.69.72,10.57-3.91,9.99-9.49-2.29-22.35-4.55-44.71-6.79-67.06-.33-3.26-4.99-3.71-5.92-.57-6.34,21.38-12.7,42.76-19.08,64.14-1.54,5.16,2.01,10.46,7.48,11.16Z"/><path class="cls-6" d="m604.71,872.1c2.36-31.34,30.5-54.36,61.86-50.77,17.25,1.97,34.51,3.91,51.77,5.81,2.13-.07,4.28,0,6.45.24,2.17.24,4.28.64,6.35,1.16,17.26,1.88,34.52,3.72,51.79,5.52,30.43,3.18,52.68,30.2,49.69,60.53-2.99,30.32-30.37,52.44-61.14,49.23-2.74-.29-5.48-.57-8.22-.86-6.01,57.19-12.02,114.39-18.03,171.58-3.18,30.53-28.84,52.88-57.3,49.77-28.46-3.11-48.68-30.48-45.19-60.98,6.5-57.14,13-114.28,19.5-171.42-2.74-.31-5.48-.62-8.21-.94-29.79-3.41-51.52-29.42-49.31-58.86Z"/><path class="cls-6" d="m816.22,1006.58c12.02-118.21,88.81-147.39,125.35-154.95,12.92-2.63,26.17-1.32,38.3,3.9,17.87,7.7,44.92,23.63,65.55,54.76,14.65,22.09,6.31,51.91-18.05,62.91-17.54,7.92-38.38,3.51-51-10.93-6.16-7.05-13.13-11.01-18.05-13.12-4.13-1.77-8.64-2.22-13.03-1.33-12.44,2.53-38.48,12.52-42.21,52.45-2.96,31.85,6.89,57.38,15.23,72.6,7.2,13.17,24.4,17.84,37.15,9.71.13-.08.26-.17.39-.25,18.24-11.92,54.57-40.15,73.17-28.82.87.53,1.75,1.07,2.62,1.6,24.31,14.8,33.36,45.41,20.24,70.29-40.46,76.69-121.15,63.1-121.07,63.04-.04.21-130.58-25.31-114.6-181.85Z"/><path class="cls-6" d="m1064.93,1153.87c6.43-82.36,12.86-164.72,19.29-247.07,1.98-25.08,24.44-43.77,50.18-41.87,1.43.11,2.87.21,4.3.32,26.22,1.94,45.84,24.47,43.38,49.99-2.23,23.72-4.47,47.44-6.71,71.16-.72,7.63,5.05,14.36,12.77,14.89,4.57.31,9.15.63,13.72.93,7.6.51,14.16-5.17,14.66-12.69,1.67-25.16,3.34-50.31,5.01-75.46,1.59-23.65,22.53-41.5,46.8-39.98,23.77,1.49,42.16,21.06,41.5,44.27-2.45,84.37-4.86,168.75-7.2,253.13-.66,24.17-22.27,42.94-47.78,41.36-2.94-.18-5.88-.37-8.83-.55-25-1.57-43.97-22.09-42.38-45.74,1.64-24.71,3.28-49.42,4.93-74.14.5-7.52-5.3-14.02-12.94-14.54-5.09-.34-10.19-.69-15.28-1.04-7.64-.53-14.27,5.13-14.79,12.65-1.67,23.83-3.34,47.65-5.01,71.48-1.74,25.1-24.66,43.95-51.18,41.99-26.52-1.96-46.41-23.98-44.44-49.07Z"/><path class="cls-6" d="m1897.21,1187.9c.64-74.25,1.29-148.51,1.93-222.76.38-38.35,33.69-67.98,71.98-64.48,82.47,7.6,156.63,35.03,157.93,141.21.56,50.24-17.41,81.8-40.49,101.53,12.22,14.5,24.49,28.97,36.81,43.43,14.7,17.26,12.29,42.86-5.57,57.17-17.86,14.31-44.37,11.82-59.04-5.53-17.74-20.97-35.38-41.98-52.93-63.02-.46.05-.92.09-1.37.13-6.77.62-11.95,6.14-11.95,12.76,0,26.12-21.87,47.3-48.87,47.17-26.99-.12-48.67-21.5-48.43-47.62Zm99.34-95.68s42.52,2.89,42.37-38.09c-.15-40.96-23.58-50.64-42.34-50.66-.01,29.58-.02,59.17-.04,88.75Z"/><path class="cls-6" d="m2280.55,986.65c21.9-115.83,111.44-101.91,165.03-83.12,23.12,8.18,36.16,32.62,29.78,56.23-7.31,27.08-37.07,41.8-63.33,31.17-21.93-8.87-38.71-9.67-40.87,2.85-3.59,20.8,17.73,25.42,17.74,25.41,38.17,9.53,65.33,21.86,84.6,35.09,42.31,29.02,52.66,86.49,22.73,128.2-50.66,70.46-129.77,46.18-175.43,22.35-21.76-11.3-31.11-36.73-21.84-58.92,10.4-24.88,39.92-36.27,64.82-24.98,27.02,12.25,50.48,13.38,54.62,3.11,6.29-15.61-9.23-19.88-9.23-19.89-149.65-36.69-128.44-117.71-128.61-117.5Z"/><path class="cls-6" d="m2526.31,1176.9c-3.24-74.19-6.48-148.37-9.71-222.56-1.62-38.32,30.1-69.65,68.53-68.15,82.78,3.27,158.31,26.79,165.16,132.76,7.22,111.46-82.45,135.32-115.49,139.95-6.73.97-11.62,6.76-11.28,13.37,1.37,26.09-19.38,48.38-46.35,49.66-26.97,1.29-49.74-18.93-50.86-45.03Zm94.23-100.75s42.63.66,40.34-40.26c-2.29-40.9-26.2-49.34-44.94-48.37,1.53,29.54,3.07,59.09,4.6,88.63Z"/><path class="cls-6" d="m2751.99,935.04c-3.49-33.54,12.9-62.66,46.41-64.93,32.71-2.24,49.09,23.41,51.26,56.26,3.7,55.75,7.39,111.5,11.07,167.25,15.15-.84,30.3-1.71,45.45-2.61,34.75-1.56,64,17.13,66.79,51.26,3.05,37.14-28.08,59.68-66.32,59.19-16.47-.21-32.94-.46-49.4-.73-44.31-.74-80.79-33.66-85.31-76.6-6.69-63.02-13.34-126.05-19.95-189.07Z"/><path class="cls-6" d="m3379.33,909.47c11.08-117.36,101.68-111.85,156.88-98.14,23.83,5.98,39.11,29.11,34.94,53.21-4.78,27.65-33.1,45.08-60.29,36.95-22.71-6.79-39.51-6.02-40.51,6.64-1.65,21.05,20.05,23.66,20.05,23.65,38.96,5.94,67.2,15.68,87.65,27.05,44.91,24.95,60.57,81.2,34.59,125.53-43.99,74.88-125.17,58.08-172.92,38.61-22.76-9.22-34.44-33.67-27.26-56.63,8.06-25.74,36.44-39.83,62.33-30.92,28.09,9.68,51.6,8.62,54.77-2,4.82-16.13-11.06-18.94-11.05-18.94-152.68-22.58-139.04-105.23-139.2-105.01Z"/><path class="cls-6" d="m3642.94,1077.93c-11.27-81.84-22.53-163.67-33.8-245.51-3.41-24.93,14.59-47.98,40.19-51.61,1.43-.2,2.85-.4,4.28-.61,26.08-3.71,50.09,14.13,53.13,39.59,2.87,23.65,5.74,47.3,8.6,70.95.92,7.61,8,12.95,15.68,11.82,4.55-.67,9.09-1.34,13.63-2.02,7.55-1.12,12.76-8.08,11.65-15.53-3.73-24.93-7.46-49.87-11.19-74.8-3.49-23.44,13.22-45.36,37.3-49.05,23.6-3.62,45.78,11.58,50.09,34.39,15.59,82.96,31.23,165.91,46.93,248.84,4.51,23.76-12.66,46.71-37.98,50.61-2.92.45-5.84.9-8.76,1.35-24.82,3.81-47.77-12.2-51.26-35.64-3.66-24.49-7.32-48.99-10.99-73.48-1.12-7.45-8.18-12.57-15.77-11.44-5.06.75-10.12,1.5-15.18,2.24-7.59,1.12-12.87,8.06-11.79,15.51,3.45,23.63,6.89,47.27,10.34,70.9,3.65,24.89-14.77,48.2-41.15,51.94-26.38,3.74-50.54-13.53-53.95-38.46Z"/></g><g><g><g><path class="cls-5" d="m1640.25,897.28c-25.06,7.94-47.62,21.47-66.24,39.13-.1.14-.22.27-.35.38l15.2,8.71.11.06.11-.06,51.33-29.77.11-.06-.05-18.45c-.07.03-.14.05-.21.07Z"/><path d="m1639.85,895.83c-19.68,6.26-38.11,16.02-54.38,28.73-4.47,3.5-8.81,7.2-12.87,11.16-.69.67-.53,1.88.3,2.36,4.86,2.78,9.71,5.56,14.57,8.35.78.45,1.42.84,2.36.36.24-.13.48-.28.72-.41l4.56-2.65c11.96-6.93,23.92-13.87,35.87-20.8,3.43-1.99,6.83-4.01,10.28-5.96.46-.26.74-.77.74-1.3-.02-6.15-.03-12.3-.05-18.45,0-.94-.96-1.74-1.9-1.45l-.21.07c-1.84.58-1.05,3.48.8,2.89l.21-.07-1.9-1.45c.02,6.15.03,12.3.05,18.45l.74-1.3c-5.83,3.3-11.6,6.72-17.39,10.08-9.3,5.4-18.61,10.79-27.91,16.19-2.08,1.21-4.15,2.43-6.24,3.62h1.51c-5.13-2.86-10.2-5.84-15.3-8.77l.3,2.36c14.27-13.94,31.46-25.11,49.73-33.06,5.29-2.3,10.7-4.31,16.2-6.06,1.83-.58,1.05-3.48-.8-2.89Z"/></g><g><path d="m1743.5,897.1l.05,18.28-.11.06-51.33,29.77-.11.06-.11-.06-51.49-29.5-.11-.06-.05-18.38c.07-.02.14-.04.21-.07,16.18-5.1,33.39-7.87,51.24-7.92,17.97-.05,35.3,2.67,51.59,7.74.07.02.15.04.21.07Z"/><path d="m1742,897.1c.02,6.09.03,12.19.05,18.28l.74-1.3c-5.83,3.3-11.6,6.72-17.39,10.08-9.3,5.4-18.61,10.79-27.91,16.19-2.08,1.21-4.15,2.43-6.24,3.62h1.51c-5.85-3.27-11.63-6.66-17.45-9.99-9.33-5.35-18.67-10.69-28-16.04-2.09-1.19-4.16-2.41-6.26-3.58l.74,1.3c-.02-6.13-.03-12.25-.05-18.38l-1.1,1.45c25.99-8.18,53.87-10.11,80.72-5.44,7.35,1.28,14.6,3.06,21.73,5.26,1.85.57,2.64-2.32.8-2.89-26.49-8.19-54.73-10.01-82.04-5.21-7.45,1.31-14.79,3.12-22,5.39-.63.2-1.1.77-1.1,1.45.02,6.13.03,12.25.05,18.38,0,.52.28,1.04.74,1.3,5.92,3.31,11.77,6.74,17.65,10.11,9.34,5.35,18.67,10.7,28.01,16.05,1.96,1.12,3.9,2.35,5.91,3.39,1.56.81,4.08-1.34,5.37-2.09,8.89-5.15,17.77-10.31,26.66-15.46,6.92-4.01,13.92-7.91,20.77-12.05.13-.08.26-.15.39-.22.46-.26.74-.77.74-1.3-.02-6.09-.03-12.19-.05-18.28,0-1.93-3.01-1.93-3,0Z"/></g><g><path class="cls-5" d="m1809.79,935.9c-18.66-17.55-41.25-30.96-66.29-38.8-.07-.03-.14-.05-.21-.07l.05,18.35.11.06,51.49,29.5.11.06.11-.06,14.99-8.7c-.12-.11-.24-.22-.35-.34Z"/><path d="m1810.85,934.84c-14.9-13.98-32.2-25.33-51.01-33.31-5.28-2.24-10.67-4.24-16.15-5.94-.93-.29-1.9.5-1.9,1.45.02,6.12.03,12.23.05,18.35,0,.52.28,1.04.74,1.3,8.92,4.98,17.74,10.16,26.61,15.24,5.98,3.42,11.96,6.85,17.93,10.27,1.84,1.05,3.67,2.1,5.51,3.16,1.01.58,2.1,1.49,3.27.88,2.56-1.32,5.01-2.9,7.49-4.35s5-2.9,7.5-4.35c.81-.47,1.02-1.7.3-2.36-.12-.11-.24-.22-.35-.34-1.32-1.41-3.44.71-2.12,2.12.11.12.22.24.35.34l.3-2.36c-5.03,2.92-10.03,5.89-15.1,8.76h1.51c-5.85-3.27-11.63-6.66-17.45-9.99-9.33-5.35-18.67-10.69-28-16.04-2.09-1.19-4.16-2.41-6.26-3.58l.74,1.3c-.02-6.12-.03-12.23-.05-18.35l-1.9,1.45c19.09,5.9,37.09,15.33,52.93,27.49,4.48,3.44,8.78,7.12,12.91,10.99,1.41,1.32,3.53-.8,2.12-2.12Z"/></g><g><path d="m1588.96,945.24l-15.09-8.64c-.14.16-.31.3-.49.42-.02.02-.05.03-.07.05-24.68,23.66-42.31,54.62-49.41,89.41l-.08-.05c-.01.09-.03.19-.05.28l.08.04,13.74,7.88.11.06.11-.06,51.33-29.77.11-.06-.16-59.5-.11-.06Z"/><path d="m1589.72,943.95c-5.03-2.88-10.06-5.76-15.09-8.64-.58-.33-1.34-.23-1.82.23-4.77,4.67-9.4,9.4-13.68,14.53s-8.44,10.73-12.17,16.44c-7.49,11.47-13.6,23.84-18.18,36.76-2.64,7.45-4.75,15.08-6.34,22.82l2.2-.9-.08-.05c-.78-.44-2.03-.08-2.2.9l-.05.28c-.12.66.08,1.34.69,1.69,4.53,2.6,9.01,5.32,13.61,7.8,1.2.65,1.95.11,2.96-.48l4.96-2.88c11.84-6.87,23.68-13.73,35.52-20.6,3.31-1.92,6.6-3.88,9.93-5.76.46-.26.74-.77.74-1.3-.02-6.73-.04-13.45-.05-20.18l-.08-31.91c0-2.47-.01-4.94-.02-7.41,0-.52-.28-1.04-.74-1.3l-.11-.06c-1.69-.94-3.2,1.65-1.51,2.59l.11.06-.74-1.3c.02,6.73.04,13.45.05,20.18.03,10.64.06,21.27.08,31.91,0,2.47.01,4.94.02,7.41l.74-1.3c-5.83,3.3-11.6,6.72-17.39,10.08l-27.91,16.19c-2.08,1.21-4.15,2.43-6.24,3.62h1.51c-4.67-2.61-9.28-5.32-13.92-7.98l.69,1.69.05-.28-2.2.9.08.05c.79.45,2,.07,2.2-.9,2.75-13.4,7.08-26.46,12.96-38.81,5.8-12.18,13.04-23.7,21.55-34.17,4.68-5.76,9.8-11.06,15.08-16.23l-1.82.23c5.03,2.88,10.06,5.76,15.09,8.64,1.68.96,3.19-1.63,1.51-2.59Z"/></g><g><polygon class="cls-5" points="1640.4 915.42 1588.86 945.3 1589.02 1004.8 1640.72 1034.42 1692.26 1004.53 1692.1 945.03 1640.4 915.42"/><path d="m1639.65,914.12c-5.83,3.38-11.66,6.76-17.48,10.14-9.21,5.34-18.43,10.68-27.64,16.03-2.14,1.24-4.28,2.48-6.42,3.72-.46.26-.74.77-.74,1.3.02,6.73.04,13.45.05,20.18.03,10.64.06,21.27.08,31.91,0,2.47.01,4.94.02,7.41,0,.53.28,1.03.74,1.3,5.91,3.39,11.83,6.78,17.74,10.16,9.27,5.31,18.54,10.62,27.81,15.93,2,1.15,4,2.53,6.1,3.49.93.43,1.51.06,2.26-.37l3.17-1.84,26.43-15.32c6.96-4.04,14.02-7.95,20.9-12.12.12-.07.24-.14.36-.21.46-.26.74-.77.74-1.3-.02-6.73-.04-13.45-.05-20.18-.03-10.64-.06-21.27-.08-31.91,0-2.47-.01-4.94-.02-7.41,0-.53-.28-1.03-.74-1.3-5.85-3.35-11.69-6.7-17.54-10.04-9.24-5.29-18.48-10.59-27.72-15.88-2.15-1.23-4.29-2.46-6.44-3.69-1.68-.96-3.19,1.63-1.51,2.59,5.85,3.35,11.69,6.7,17.54,10.04,9.24,5.29,18.48,10.59,27.72,15.88,2.15,1.23,4.29,2.46,6.44,3.69l-.74-1.3c.02,6.73.04,13.45.05,20.18.03,10.64.06,21.27.08,31.91,0,2.47.01,4.94.02,7.41l.74-1.3c-5.83,3.38-11.66,6.76-17.48,10.14-9.21,5.34-18.43,10.68-27.64,16.03-2.14,1.24-4.28,2.48-6.42,3.72h1.51c-5.85-3.35-11.69-6.7-17.54-10.04-9.24-5.29-18.48-10.59-27.72-15.88-2.15-1.23-4.29-2.46-6.44-3.69l.74,1.3c-.02-6.73-.04-13.45-.05-20.18-.03-10.64-.06-21.27-.08-31.91,0-2.47-.01-4.94-.02-7.41l-.74,1.3c5.83-3.38,11.66-6.76,17.48-10.14,9.21-5.34,18.43-10.68,27.64-16.03,2.14-1.24,4.28-2.48,6.42-3.72,1.67-.97.16-3.56-1.51-2.59Z"/></g><g><polygon class="cls-5" points="1743.44 915.14 1691.89 945.03 1692.05 1004.53 1743.75 1034.14 1795.3 1004.26 1795.14 944.76 1743.44 915.14"/><path d="m1742.68,913.85c-5.83,3.38-11.66,6.76-17.48,10.14-9.21,5.34-18.43,10.68-27.64,16.03-2.14,1.24-4.28,2.48-6.42,3.72-.46.26-.74.77-.74,1.3.02,6.73.04,13.45.05,20.18.03,10.64.06,21.27.08,31.91,0,2.47.01,4.94.02,7.41,0,.53.28,1.03.74,1.3,5.91,3.39,11.83,6.78,17.74,10.16,9.27,5.31,18.54,10.62,27.81,15.93,2,1.15,4,2.53,6.1,3.49.93.43,1.51.06,2.26-.37l3.17-1.84c8.81-5.11,17.62-10.22,26.43-15.32,6.96-4.04,14.02-7.95,20.9-12.12.12-.07.24-.14.36-.21.46-.26.74-.77.74-1.3-.02-6.73-.04-13.45-.05-20.18l-.08-31.91c0-2.47-.01-4.94-.02-7.41,0-.53-.28-1.03-.74-1.3-5.85-3.35-11.69-6.7-17.54-10.04-9.24-5.29-18.48-10.59-27.72-15.88-2.15-1.23-4.29-2.46-6.44-3.69-1.68-.96-3.19,1.63-1.51,2.59,5.85,3.35,11.69,6.7,17.54,10.04,9.24,5.29,18.48,10.59,27.72,15.88,2.15,1.23,4.29,2.46,6.44,3.69l-.74-1.3c.02,6.73.04,13.45.05,20.18.03,10.64.06,21.27.08,31.91,0,2.47.01,4.94.02,7.41l.74-1.3c-5.83,3.38-11.66,6.76-17.48,10.14-9.21,5.34-18.43,10.68-27.64,16.03-2.14,1.24-4.28,2.48-6.42,3.72h1.51c-5.85-3.35-11.69-6.7-17.54-10.04-9.24-5.29-18.48-10.59-27.72-15.88-2.15-1.23-4.29-2.46-6.44-3.69l.74,1.3c-.02-6.73-.04-13.45-.05-20.18l-.08-31.91c0-2.47-.01-4.94-.02-7.41l-.74,1.3c5.83-3.38,11.66-6.76,17.48-10.14,9.21-5.34,18.43-10.68,27.64-16.03,2.14-1.24,4.28-2.48,6.42-3.72,1.67-.97.16-3.56-1.51-2.59Z"/></g><g><path d="m1860.27,1025.75c-7.28-34.84-25.11-65.8-49.99-89.38-.13-.09-.24-.2-.35-.31l-14.89,8.63-.11.06.16,59.5.11.06,51.49,29.5.11.06.11-.06,13.43-7.79c-.02-.09-.04-.18-.06-.28Z"/><path d="m1861.72,1025.35c-2.86-13.62-7.37-26.88-13.41-39.42-5.9-12.26-13.27-23.79-21.87-34.34-4.78-5.86-9.94-11.4-15.45-16.58-.49-.46-1.23-.58-1.82-.23-5,2.9-9.97,5.85-15,8.69-.46.26-.74.77-.74,1.3.02,6.73.04,13.45.05,20.18.03,10.64.06,21.27.08,31.91,0,2.47.01,4.94.02,7.41,0,.52.28,1.04.74,1.3,8.63,4.82,17.16,9.83,25.74,14.75,5.95,3.41,11.9,6.82,17.85,10.23,1.95,1.12,3.9,2.23,5.85,3.35.72.42,1.45.91,2.21,1.26,1.13.52,2.02-.23,2.96-.78l4.57-2.65c2.52-1.46,5.05-2.93,7.57-4.39.6-.35.83-1.04.69-1.69l-.06-.28c-.41-1.89-3.3-1.09-2.89.8l.06.28.69-1.69c-4.51,2.62-9,5.28-13.54,7.85h1.51c-5.85-3.27-11.63-6.66-17.45-9.99-9.33-5.35-18.67-10.69-28-16.04-2.09-1.19-4.16-2.41-6.26-3.58l.74,1.3c-.02-6.73-.04-13.45-.05-20.18-.03-10.64-.06-21.27-.08-31.91,0-2.47-.01-4.94-.02-7.41l-.74,1.3c5.03-2.84,10-5.79,15-8.69l-1.82-.23c9.66,9.07,18.24,19.27,25.53,30.34s13.58,23.53,18.13,36.31c2.6,7.31,4.7,14.79,6.29,22.38.4,1.89,3.29,1.09,2.89-.8Z"/></g><g><polygon class="cls-5" points="1589.12 1004.56 1537.58 1034.44 1537.73 1093.94 1589.44 1123.56 1640.98 1093.67 1640.82 1034.17 1589.12 1004.56"/><path d="m1588.36,1003.26c-5.83,3.38-11.66,6.76-17.48,10.14-9.21,5.34-18.43,10.68-27.64,16.03-2.14,1.24-4.28,2.48-6.42,3.72-.46.26-.74.77-.74,1.3.02,6.73.04,13.45.05,20.18.03,10.64.06,21.27.08,31.91,0,2.47.01,4.94.02,7.41,0,.53.28,1.03.74,1.3,5.91,3.39,11.83,6.78,17.74,10.16,9.27,5.31,18.54,10.62,27.81,15.93,2,1.15,4,2.53,6.1,3.49.93.43,1.51.06,2.26-.37l3.17-1.84c8.81-5.11,17.62-10.22,26.43-15.32,6.96-4.04,14.02-7.95,20.9-12.12.12-.07.24-.14.36-.21.46-.26.74-.77.74-1.3-.02-6.73-.04-13.45-.05-20.18-.03-10.64-.06-21.27-.08-31.91,0-2.47-.01-4.94-.02-7.41,0-.53-.28-1.03-.74-1.3-5.85-3.35-11.69-6.7-17.54-10.04-9.24-5.29-18.48-10.59-27.72-15.88-2.15-1.23-4.29-2.46-6.44-3.69-1.68-.96-3.19,1.63-1.51,2.59,5.85,3.35,11.69,6.7,17.54,10.04,9.24,5.29,18.48,10.59,27.72,15.88,2.15,1.23,4.29,2.46,6.44,3.69l-.74-1.3c.02,6.73.04,13.45.05,20.18l.08,31.91c0,2.47.01,4.94.02,7.41l.74-1.3c-5.83,3.38-11.66,6.76-17.48,10.14-9.21,5.34-18.43,10.68-27.64,16.03-2.14,1.24-4.28,2.48-6.42,3.72h1.51c-5.85-3.35-11.69-6.7-17.54-10.04-9.24-5.29-18.48-10.59-27.72-15.88-2.15-1.23-4.29-2.46-6.44-3.69l.74,1.3c-.02-6.73-.04-13.45-.05-20.18-.03-10.64-.06-21.27-.08-31.91,0-2.47-.01-4.94-.02-7.41l-.74,1.3c5.83-3.38,11.66-6.76,17.48-10.14,9.21-5.34,18.43-10.68,27.64-16.03,2.14-1.24,4.28-2.48,6.42-3.72,1.67-.97.16-3.56-1.51-2.59Z"/></g><g><polygon points="1692.16 1004.28 1640.61 1034.17 1640.77 1093.67 1692.47 1123.28 1744.02 1093.4 1743.86 1033.9 1692.16 1004.28"/><path d="m1691.4,1002.99c-5.83,3.38-11.66,6.76-17.48,10.14-9.21,5.34-18.43,10.68-27.64,16.03-2.14,1.24-4.28,2.48-6.42,3.72-.46.26-.74.77-.74,1.3.02,6.73.04,13.45.05,20.18.03,10.64.06,21.27.08,31.91,0,2.47.01,4.94.02,7.41,0,.53.28,1.03.74,1.3,5.91,3.39,11.83,6.78,17.74,10.16,9.27,5.31,18.54,10.62,27.81,15.93,2,1.15,4,2.53,6.1,3.49.93.43,1.51.06,2.26-.37l3.17-1.84c8.81-5.11,17.62-10.22,26.43-15.32,6.96-4.04,14.02-7.95,20.9-12.12.12-.07.24-.14.36-.21.46-.26.74-.77.74-1.3-.02-6.73-.04-13.45-.05-20.18-.03-10.64-.06-21.27-.08-31.91,0-2.47-.01-4.94-.02-7.41,0-.53-.28-1.03-.74-1.3-5.85-3.35-11.69-6.7-17.54-10.04-9.24-5.29-18.48-10.59-27.72-15.88-2.15-1.23-4.29-2.46-6.44-3.69-1.68-.96-3.19,1.63-1.51,2.59,5.85,3.35,11.69,6.7,17.54,10.04,9.24,5.29,18.48,10.59,27.72,15.88,2.15,1.23,4.29,2.46,6.44,3.69l-.74-1.3c.02,6.73.04,13.45.05,20.18.03,10.64.06,21.27.08,31.91,0,2.47.01,4.94.02,7.41l.74-1.3c-5.83,3.38-11.66,6.76-17.48,10.14-9.21,5.34-18.43,10.68-27.64,16.03-2.14,1.24-4.28,2.48-6.42,3.72h1.51c-5.85-3.35-11.69-6.7-17.54-10.04-9.24-5.29-18.48-10.59-27.72-15.88-2.15-1.23-4.29-2.46-6.44-3.69l.74,1.3c-.02-6.73-.04-13.45-.05-20.18-.03-10.64-.06-21.27-.08-31.91,0-2.47-.01-4.94-.02-7.41l-.74,1.3c5.83-3.38,11.66-6.76,17.48-10.14,9.21-5.34,18.43-10.68,27.64-16.03,2.14-1.24,4.28-2.48,6.42-3.72,1.67-.97.16-3.56-1.51-2.59Z"/></g><g><polygon class="cls-5" points="1795.19 1004.01 1743.65 1033.9 1743.81 1093.4 1795.51 1123.01 1847.05 1093.12 1846.9 1033.62 1795.19 1004.01"/><path d="m1794.44,1002.71c-5.83,3.38-11.66,6.76-17.48,10.14-9.21,5.34-18.43,10.68-27.64,16.03-2.14,1.24-4.28,2.48-6.42,3.72-.46.26-.74.77-.74,1.3.02,6.73.04,13.45.05,20.18.03,10.64.06,21.27.08,31.91,0,2.47.01,4.94.02,7.41,0,.53.28,1.03.74,1.3,5.91,3.39,11.83,6.78,17.74,10.16,9.27,5.31,18.54,10.62,27.81,15.93,2,1.15,4,2.53,6.1,3.49.93.43,1.51.06,2.26-.37l3.17-1.84c8.81-5.11,17.62-10.22,26.43-15.32,6.96-4.04,14.02-7.95,20.9-12.12.12-.07.24-.14.36-.21.46-.26.74-.77.74-1.3-.02-6.73-.04-13.45-.05-20.18-.03-10.64-.06-21.27-.08-31.91,0-2.47-.01-4.94-.02-7.41,0-.53-.28-1.03-.74-1.3-5.85-3.35-11.69-6.7-17.54-10.04-9.24-5.29-18.48-10.59-27.72-15.88-2.15-1.23-4.29-2.46-6.44-3.69-1.68-.96-3.19,1.63-1.51,2.59,5.85,3.35,11.69,6.7,17.54,10.04,9.24,5.29,18.48,10.59,27.72,15.88,2.15,1.23,4.29,2.46,6.44,3.69l-.74-1.3c.02,6.73.04,13.45.05,20.18.03,10.64.06,21.27.08,31.91,0,2.47.01,4.94.02,7.41l.74-1.3c-5.83,3.38-11.66,6.76-17.48,10.14-9.21,5.34-18.43,10.68-27.64,16.03-2.14,1.24-4.28,2.48-6.42,3.72h1.51c-5.85-3.35-11.69-6.7-17.54-10.04-9.24-5.29-18.48-10.59-27.72-15.88-2.15-1.23-4.29-2.46-6.44-3.69l.74,1.3c-.02-6.73-.04-13.45-.05-20.18-.03-10.64-.06-21.27-.08-31.91,0-2.47-.01-4.94-.02-7.41l-.74,1.3c5.83-3.38,11.66-6.76,17.48-10.14,9.21-5.34,18.43-10.68,27.64-16.03,2.14-1.24,4.28-2.48,6.42-3.72,1.67-.97.16-3.56-1.51-2.59Z"/></g><polyline class="cls-10" points="1860.27 1025.75 1846.79 1033.56 1846.69 1033.62 1846.69 1033.81 1846.84 1092.94 1846.84 1093.12 1846.95 1093.18 1859.39 1100.31"/><g><path d="m1589.43,1123.25l-51.49-29.49-.11-.06-.11.06-12.61,7.31c.28.5.44,1.1.44,1.63,0,.06,0,.11,0,.17.03.1.05.21.08.31.05.11.1.23.14.34.07.21.11.44.12.68,8.59,33.2,26.87,62.5,51.63,84.71.26.16.5.34.7.55l11.38-6.6.11-.06-.16-59.5-.11-.06Z"/><path d="m1590.19,1121.95c-8.47-4.85-16.95-9.71-25.42-14.56-5.86-3.36-11.72-6.71-17.57-10.07-2.82-1.61-5.6-3.38-8.49-4.86-.99-.51-1.66-.05-2.48.43l-4.28,2.48c-2.53,1.47-5.06,2.93-7.59,4.4-.75.43-.88,1.32-.54,2.05.29.62.31,1.43.5,2.1.24.88.4,1.79.65,2.68.45,1.66.93,3.3,1.43,4.95,1.01,3.33,2.13,6.63,3.35,9.89,2.41,6.47,5.2,12.79,8.36,18.93,6.29,12.21,14.07,23.65,23.06,34.04,2.49,2.88,5.08,5.68,7.75,8.38s5.51,5.15,8.24,7.74c.49.46,1.23.58,1.82.23,3.83-2.22,7.63-4.48,11.48-6.66.46-.26.74-.77.74-1.3-.02-6.73-.04-13.45-.05-20.18-.03-10.64-.06-21.27-.08-31.91,0-2.47-.01-4.94-.02-7.41,0-.52-.28-1.04-.74-1.3l-.11-.06c-1.69-.94-3.2,1.65-1.51,2.59l.11.06-.74-1.3c.02,6.73.04,13.45.05,20.18.03,10.64.06,21.27.08,31.91,0,2.47.01,4.94.02,7.41l.74-1.3c-3.85,2.18-7.66,4.44-11.48,6.66l1.82.23c-2.4-2.27-4.91-4.41-7.25-6.75s-4.66-4.78-6.89-7.27c-4.55-5.09-8.79-10.45-12.7-16.05-7.78-11.17-14.26-23.27-19.15-35.98-1.4-3.63-2.67-7.31-3.82-11.02-.59-1.9-1.14-3.81-1.66-5.73-.47-1.74-.62-3.67-1.39-5.29l-.54,2.05c4.24-2.46,8.45-4.96,12.71-7.37h-1.51c5.78,3.23,11.49,6.58,17.24,9.87,9.3,5.33,18.61,10.66,27.91,15.99,2.15,1.23,4.3,2.46,6.45,3.69,1.68.96,3.19-1.63,1.51-2.59Z"/></g><g><polygon class="cls-5" points="1640.87 1093.42 1589.33 1123.31 1589.49 1182.81 1641.19 1212.43 1692.73 1182.54 1692.58 1123.04 1640.87 1093.42"/><path d="m1640.12,1092.13c-5.83,3.38-11.66,6.76-17.48,10.14-9.21,5.34-18.43,10.68-27.64,16.03-2.14,1.24-4.28,2.48-6.42,3.72-.46.26-.74.77-.74,1.3.02,6.73.04,13.45.05,20.18.03,10.64.06,21.27.08,31.91,0,2.47.01,4.94.02,7.41,0,.53.28,1.03.74,1.3,5.91,3.39,11.83,6.78,17.74,10.16,9.27,5.31,18.54,10.62,27.81,15.93,2,1.15,4,2.53,6.1,3.49.93.43,1.51.06,2.26-.37l3.17-1.84c8.81-5.11,17.62-10.22,26.43-15.32,6.96-4.04,14.02-7.95,20.9-12.12.12-.07.24-.14.36-.21.46-.26.74-.77.74-1.3-.02-6.73-.04-13.45-.05-20.18l-.08-31.91c0-2.47-.01-4.94-.02-7.41,0-.53-.28-1.03-.74-1.3-5.85-3.35-11.69-6.7-17.54-10.04-9.24-5.29-18.48-10.59-27.72-15.88-2.15-1.23-4.29-2.46-6.44-3.69-1.68-.96-3.19,1.63-1.51,2.59,5.85,3.35,11.69,6.7,17.54,10.04,9.24,5.29,18.48,10.59,27.72,15.88,2.15,1.23,4.29,2.46,6.44,3.69l-.74-1.3c.02,6.73.04,13.45.05,20.18.03,10.64.06,21.27.08,31.91,0,2.47.01,4.94.02,7.41l.74-1.3c-5.83,3.38-11.66,6.76-17.48,10.14-9.21,5.34-18.43,10.68-27.64,16.03-2.14,1.24-4.28,2.48-6.42,3.72h1.51c-5.85-3.35-11.69-6.7-17.54-10.04-9.24-5.29-18.48-10.59-27.72-15.88-2.15-1.23-4.29-2.46-6.44-3.69l.74,1.3c-.02-6.73-.04-13.45-.05-20.18-.03-10.64-.06-21.27-.08-31.91,0-2.47-.01-4.94-.02-7.41l-.74,1.3c5.83-3.38,11.66-6.76,17.48-10.14,9.21-5.34,18.43-10.68,27.64-16.03,2.14-1.24,4.28-2.48,6.42-3.72,1.67-.97.16-3.56-1.51-2.59Z"/></g><g><polygon class="cls-5" points="1743.91 1093.15 1692.37 1123.04 1692.52 1182.54 1744.23 1212.15 1795.77 1182.26 1795.61 1122.76 1743.91 1093.15"/><path d="m1743.15,1091.86c-5.83,3.38-11.66,6.76-17.48,10.14-9.21,5.34-18.43,10.68-27.64,16.03-2.14,1.24-4.28,2.48-6.42,3.72-.46.26-.74.77-.74,1.3.02,6.73.04,13.45.05,20.18l.08,31.91c0,2.47.01,4.94.02,7.41,0,.53.28,1.03.74,1.3,5.91,3.39,11.83,6.78,17.74,10.16,9.27,5.31,18.54,10.62,27.81,15.93,2,1.15,4,2.53,6.1,3.49.93.43,1.51.06,2.26-.37l3.17-1.84c8.81-5.11,17.62-10.22,26.43-15.32,6.96-4.04,14.02-7.95,20.9-12.12.12-.07.24-.14.36-.21.46-.26.74-.77.74-1.3-.02-6.73-.04-13.45-.05-20.18l-.08-31.91c0-2.47-.01-4.94-.02-7.41,0-.53-.28-1.03-.74-1.3-5.85-3.35-11.69-6.7-17.54-10.04-9.24-5.29-18.48-10.59-27.72-15.88-2.15-1.23-4.29-2.46-6.44-3.69-1.68-.96-3.19,1.63-1.51,2.59,5.85,3.35,11.69,6.7,17.54,10.04,9.24,5.29,18.48,10.59,27.72,15.88,2.15,1.23,4.29,2.46,6.44,3.69l-.74-1.3c.02,6.73.04,13.45.05,20.18l.08,31.91c0,2.47.01,4.94.02,7.41l.74-1.3c-5.83,3.38-11.66,6.76-17.48,10.14-9.21,5.34-18.43,10.68-27.64,16.03-2.14,1.24-4.28,2.48-6.42,3.72h1.51c-5.85-3.35-11.69-6.7-17.54-10.04-9.24-5.29-18.48-10.59-27.72-15.88-2.15-1.23-4.29-2.46-6.44-3.69l.74,1.3c-.02-6.73-.04-13.45-.05-20.18l-.08-31.91c0-2.47-.01-4.94-.02-7.41l-.74,1.3c5.83-3.38,11.66-6.76,17.48-10.14,9.21-5.34,18.43-10.68,27.64-16.03,2.14-1.24,4.28-2.48,6.42-3.72,1.67-.97.16-3.56-1.51-2.59Z"/></g><g><path d="m1847.05,1092.94l-.11-.06-.11.06-51.33,29.76-.11.06.16,59.5.11.06,11.2,6.42s.05-.05.08-.09c.23-.22.51-.44.82-.61,25.24-22.98,43.6-53.38,51.63-87.74.03-.09.05-.17.07-.26h0s-12.4-7.11-12.4-7.11Z"/><path d="m1847.81,1091.64c-1-.56-1.79.04-2.62.52l-3.46,2.01-12.11,7.02c-9.5,5.51-19.01,11.02-28.51,16.53-2.15,1.25-4.29,2.52-6.46,3.74-.46.26-.74.77-.74,1.3.02,6.73.04,13.45.05,20.18.03,10.64.06,21.27.08,31.91,0,2.47.01,4.94.02,7.41,0,.52.28,1.04.74,1.3,3.79,2.12,7.54,4.32,11.31,6.47.56.32,1.37.26,1.82-.23.42-.46,1.02-.8,1.48-1.23.69-.63,1.37-1.27,2.05-1.91,1.26-1.19,2.5-2.41,3.72-3.64,2.39-2.41,4.72-4.9,6.96-7.45,4.58-5.2,8.86-10.68,12.8-16.39,7.87-11.41,14.33-23.77,19.25-36.72,1.4-3.69,2.68-7.43,3.82-11.21.58-1.9,1.12-3.81,1.63-5.73.26-1,.52-2,.76-3,.19-.77.55-1.68.55-2.48,0-.53-.28-1.03-.74-1.3-4.13-2.37-8.27-4.73-12.4-7.1-1.68-.96-3.19,1.63-1.51,2.59,4.13,2.37,8.27,4.73,12.4,7.1l-.74-1.3c0-.31-.17.55-.2.68-.1.4-.19.8-.29,1.2-.21.87-.43,1.73-.66,2.6-.44,1.66-.9,3.31-1.38,4.95-.99,3.33-2.08,6.64-3.26,9.91-2.34,6.42-5.07,12.7-8.17,18.78-6.14,12.05-13.71,23.37-22.52,33.63-2.43,2.83-4.96,5.59-7.57,8.25-1.35,1.38-2.73,2.74-4.12,4.08-.67.64-1.35,1.28-2.04,1.92-.61.57-1.37,1.03-1.93,1.64l1.82-.23c-3.77-2.16-7.52-4.36-11.31-6.47l.74,1.3c-.02-6.73-.04-13.45-.05-20.18l-.08-31.91c0-2.47-.01-4.94-.02-7.41l-.74,1.3c5.83-3.3,11.6-6.72,17.39-10.08,9.3-5.4,18.61-10.79,27.91-16.19,2.08-1.21,4.15-2.43,6.24-3.62h-1.51l.11.06c1.69.94,3.2-1.65,1.51-2.59Z"/></g><g><path d="m1744.31,1224.68s.04-.02.06-.03l-.03-12.75-.11-.06-51.49-29.49-.11-.06-.11.06-51.33,29.76-.11.06.03,12.9c.07.02.14.04.21.07h0c16.2,5.01,33.43,7.69,51.28,7.64,17.92-.05,35.19-2.84,51.42-7.98.09-.04.18-.1.27-.13Z"/><path d="m1745.06,1225.98l.06-.03c.47-.21.74-.81.74-1.3-.01-4.25-.02-8.5-.03-12.75,0-.52-.28-1.04-.74-1.3-5.92-3.3-11.77-6.74-17.65-10.11-9.34-5.35-18.67-10.7-28.01-16.04-1.96-1.12-3.9-2.35-5.91-3.39-1.56-.81-4.08,1.34-5.37,2.09-8.89,5.15-17.77,10.3-26.66,15.46-6.92,4.01-13.92,7.91-20.77,12.04-.13.08-.26.15-.39.22-.46.26-.74.77-.74,1.3.01,4.3.02,8.6.03,12.9,0,.68.47,1.25,1.1,1.45l.21.07c.93.3,1.9-.5,1.9-1.45h0c-.63.48-1.27.96-1.9,1.44,26.48,8.16,54.82,9.83,82.09,4.95,3.79-.68,7.55-1.48,11.28-2.42,1.78-.44,3.55-.92,5.31-1.42s3.75-.92,5.44-1.73.22-3.41-1.51-2.59c-1.43.68-3.21.99-4.73,1.42-1.62.46-3.24.9-4.87,1.31-3.2.81-6.43,1.53-9.68,2.15-6.69,1.28-13.45,2.15-20.24,2.62-13.51.92-27.14.29-40.49-1.98-7.38-1.26-14.67-3-21.82-5.21-.94-.29-1.9.5-1.9,1.45h0c.63-.48,1.27-.96,1.9-1.44l-.21-.07,1.1,1.45c-.01-4.3-.02-8.6-.03-12.9l-.74,1.3c5.83-3.3,11.6-6.72,17.39-10.08,9.3-5.4,18.61-10.79,27.91-16.19,2.08-1.21,4.15-2.43,6.24-3.62h-1.51c5.85,3.27,11.63,6.66,17.45,9.99,9.33,5.35,18.67,10.69,28,16.04,2.09,1.19,4.16,2.41,6.26,3.58l-.74-1.3c.01,4.25.02,8.5.03,12.75l.74-1.3-.06.03c-1.76.79-.23,3.37,1.51,2.59Z"/></g><path d="m1861.78,1025.62c-7.22-33.17-23.51-63.69-47.67-87.64s-57.63-41.74-92.44-47.68c-37.05-6.33-75.71-.47-109.1,16.82-30.18,15.63-55.49,40.24-71.98,69.96-17.79,32.07-24.89,69.09-20.33,105.49,4.25,33.96,18.66,66.22,41.13,92.08,22.72,26.15,53.28,45.23,86.82,54,36.86,9.64,76.59,6.75,111.64-8.12,31.42-13.33,58.52-36.06,77.26-64.58,19.76-30.08,29.63-66.1,28.16-102.05-.39-9.51-1.57-18.97-3.48-28.29-.39-1.89-3.28-1.09-2.89.8,7.42,36.22,3.01,74.13-12.76,107.38-14.21,29.95-37.17,55.46-65.47,72.7-31.36,19.11-68.48,27.49-105.03,24.01-17.88-1.7-35.54-6.3-51.98-13.55-8.02-3.54-15.76-7.7-23.14-12.42-7.17-4.58-14.32-9.64-20.55-15.45-5.84-5.45-11.58-10.89-16.82-16.95-5.45-6.32-10.43-13.04-14.89-20.09-8.91-14.08-15.74-29.43-20.18-45.49-9.67-34.96-7.85-72.8,5.16-106.69,11.84-30.82,32.88-57.93,59.69-77.17,29.43-21.12,65.19-32.33,101.4-31.88,35.87.44,71.03,12.39,99.77,33.85,26.53,19.82,47.06,47.47,58.27,78.63,2.72,7.56,4.81,15.28,6.52,23.12.41,1.89,3.3,1.09,2.89-.8Z"/></g><path class="cls-5" d="m1858.4,1097.6l-9.49-6.28-.15-56.74,10.25-5.54s5.63,40.17-.61,68.56Z"/><path class="cls-5" d="m1795.47,1184.45l7.91,4.71s-25.2,23.71-56.76,31.67l-.02-7.88s29.96-15.84,48.87-28.5Z"/><path class="cls-5" d="m1582.33,1189.74c19,18.86,56.93,32.95,56.93,32.95l-.03-9.46s-28.46-14.11-49.02-28.24l-7.88,4.75Z"/><path class="cls-5" d="m1536.13,1035.41c-1.48,36.25.15,56.74.15,56.74l-9.46,6.33s-7.98-31.5-1.76-67.76l11.06,4.7Z"/></g><g><path class="cls-13" d="m3316.11,978.62l-2.32,4.17c-.73,1.3-2.46,1.76-3.95,1.05l-198.77-95.93c-1.49-.72-2.21-2.36-1.64-3.74l1.82-4.41c.61-1.49,2.47-2.08,4.08-1.31l199.27,96.17c1.6.77,2.29,2.6,1.51,4.01Z"/><path class="cls-13" d="m3307.33,982.37l-128.57,230.82h0c-.75,1.36-2.57,1.83-4.14,1.07l-159.02-76.74c-1.93-.93-2.87-3.05-2.14-4.82h0s100.44-243.64,100.44-243.64"/><polygon class="cls-12" points="3308.05 972.05 3175.52 1211.16 3017.14 1134.73 3017.21 1134.57 3102.39 929.17 3120.1 886.44 3122.1 882.31 3308.05 972.05"/><ellipse class="cls-4" cx="3129.2" cy="976.48" rx="13.27" ry="14.31" transform="translate(889.73 3370.26) rotate(-64.24)"/><ellipse class="cls-7" cx="3130.83" cy="829.23" rx="8.84" ry="9.54" transform="translate(1023.26 3288.47) rotate(-64.24)"/><ellipse class="cls-7" cx="3164.02" cy="816.51" rx="13.27" ry="14.31" transform="translate(1053.49 3311.17) rotate(-64.24)"/><ellipse class="cls-4" cx="3075.83" cy="1069.95" rx="23" ry="24.81" transform="translate(775.37 3375.03) rotate(-64.24)"/><path class="cls-4" d="m3206.03,1155.55h0s-4.87,8.8-4.87,8.8h0c-5.6,5.44-14.64,6.94-22.58,3.11-9.96-4.81-14.43-16.2-9.97-25.44s16.15-12.83,26.12-8.02c8.6,4.15,13.11,13.21,11.31,21.55Z"/><ellipse class="cls-4" cx="3180.75" cy="1094.46" rx="4.42" ry="4.77" transform="translate(812.62 3483.39) rotate(-64.24)"/><ellipse class="cls-4" cx="3101.95" cy="1106.71" rx="7.96" ry="8.59" transform="translate(757.03 3419.34) rotate(-64.24)"/><ellipse class="cls-4" cx="3185.32" cy="1048.25" rx="22.55" ry="24.33" transform="translate(856.82 3461.38) rotate(-64.24)"/><path class="cls-7" d="m3325.62,956.37l-1.69,3.5c-1.87,3.88-4.83,6.92-8.39,8.96-5.23,3.01-11.78,3.88-18.12,2.13-1.46-.4-2.92-.94-4.34-1.63l-160.21-77.32c-1.36-.66-2.63-1.42-3.81-2.27-5.42-3.89-8.88-9.63-9.77-15.68-.6-4.04-.06-8.23,1.81-12.09l1.69-3.5c5.27-10.91,19.08-15.15,30.85-9.47l160.21,77.32c11.77,5.68,17.04,19.13,11.78,30.04Z"/><ellipse class="cls-7" cx="3183.74" cy="874.63" rx="34.28" ry="36.98" transform="translate(1012.3 3361.79) rotate(-64.24)"/><ellipse class="cls-7" cx="3232.71" cy="881.19" rx="42.37" ry="45.71" transform="translate(1034.07 3409.61) rotate(-64.24)"/><ellipse class="cls-7" cx="3270.02" cy="909.45" rx="39.1" ry="42.18" transform="translate(1029.71 3459.18) rotate(-64.24)"/><ellipse class="cls-3" cx="3121.41" cy="1031.25" rx="6.19" ry="6.68" transform="translate(835.99 3394.21) rotate(-64.24)"/><ellipse class="cls-3" cx="3210.18" cy="997.49" rx="4.78" ry="5.15" transform="translate(916.59 3455.06) rotate(-64.24)"/><ellipse class="cls-3" cx="3221.57" cy="1057.94" rx="4.86" ry="5.25" transform="translate(868.58 3499.5) rotate(-64.24)"/><ellipse class="cls-3" cx="3180.45" cy="1002" rx="2.65" ry="2.86" transform="translate(895.72 3430.84) rotate(-64.24)"/><ellipse class="cls-3" cx="3129.23" cy="1046.22" rx="2.12" ry="2.29" transform="translate(826.93 3409.72) rotate(-64.24)"/><path class="cls-2" d="m3250.06,944.26l-118.56,245.66,43.66,21.07-1.67-.9.04-.07,15.48-27.44h.02s.05-.08.08-.12h-.03s23.12-41.01,23.12-41.01h0s4.36-7.75,4.36-7.75h0s69.14-122.58,69.14-122.58l19.15-33.95,2.54-5.25-57.33-27.67Z"/><rect class="cls-11" x="3077.12" y="886.99" width="47.71" height="273.13" transform="translate(753.08 -1246.05) rotate(25.76)"/><polygon class="cls-7" points="3308.46 971.65 3304.42 979.56 3295.12 997.76 3286.54 1014.56 3285.19 1016.99 3101.21 928.2 3118.89 885.46 3120.18 882.34 3120.78 881.08 3308.46 971.65"/><rect class="cls-7" x="3235.35" y="951.19" width="36.64" height="94.11" rx="11.52" ry="11.52" transform="translate(757.26 -1314.93) rotate(25.76)"/></g></g></svg>